<svg width="70" height="76" viewBox="0 0 70 76" fill="none" xmlns="http://www.w3.org/2000/svg">
<path d="M0 10C0 4.47715 4.47715 0 10 0H60C65.5229 0 70 4.47715 70 10V66C70 71.5229 65.5229 76 60 76H10C4.47715 76 0 71.5229 0 66V10Z" fill="#3C403D"/>
<path d="M31.1433 51.4558L21.666 48.2945V26.8171L30.8553 29.8838L40.23 24.5225L48.3327 27.7638V49.3025L40.4353 46.1425L31.1447 51.4558H31.1433ZM24.3327 30.5225V46.3718L29.666 48.1491V32.2931L24.3327 30.5225ZM37.666 29.0558L32.3327 32.1065V47.7065L37.666 44.6558V29.0558ZM40.4353 27.4745L40.3327 27.5358V43.2305L45.666 45.3638V29.5678L40.4353 27.4745Z" fill="white"/>
</svg>
