<svg width="70" height="76" viewBox="0 0 70 76" fill="none" xmlns="http://www.w3.org/2000/svg">
<path d="M0 10C0 4.47715 4.47715 0 10 0H60C65.5229 0 70 4.47715 70 10V66C70 71.5229 65.5229 76 60 76H10C4.47715 76 0 71.5229 0 66V10Z" fill="#40BB15"/>
<path d="M45.666 48.6668H24.3327C22.8599 48.6668 21.666 47.4729 21.666 46.0002V30.0002C21.666 28.5274 22.8599 27.3335 24.3327 27.3335H45.666C47.1388 27.3335 48.3327 28.5274 48.3327 30.0002V46.0002C48.3327 47.4729 47.1388 48.6668 45.666 48.6668ZM24.3327 38.0002V46.0002H45.666V38.0002H24.3327ZM24.3327 30.0002V32.6668H45.666V30.0002H24.3327ZM36.3327 43.3335H26.9993V40.6668H36.3327V43.3335Z" fill="white"/>
</svg>
