<svg width="131" height="23" viewBox="0 0 131 23" fill="none" xmlns="http://www.w3.org/2000/svg">
<g clip-path="url(#clip0_2_347)">
<path d="M20.5969 8.41915C20.5392 8.24934 20.4331 8.10013 20.2916 7.98994C20.1501 7.87975 19.9795 7.81341 19.8007 7.7991L14.5716 7.38359L12.3087 2.37458C12.2367 2.21324 12.1195 2.07622 11.9712 1.98003C11.823 1.88385 11.6501 1.83262 11.4734 1.83252C11.2968 1.83242 11.1238 1.88347 10.9755 1.97949C10.8272 2.07551 10.7098 2.21241 10.6375 2.37366L8.37473 7.38359L3.14558 7.7991C2.96989 7.81302 2.80193 7.87726 2.66179 7.98413C2.52165 8.09101 2.41527 8.236 2.35537 8.40175C2.29548 8.5675 2.2846 8.747 2.32405 8.91877C2.3635 9.09054 2.4516 9.24731 2.57781 9.37032L6.44212 13.1374L5.07544 19.0554C5.03394 19.2345 5.04724 19.422 5.11361 19.5935C5.17999 19.765 5.29637 19.9125 5.44765 20.0171C5.59894 20.1216 5.77815 20.1782 5.96202 20.1796C6.1459 20.181 6.32594 20.1271 6.47881 20.0249L11.4731 16.6954L16.4675 20.0249C16.6237 20.1286 16.808 20.182 16.9955 20.1779C17.183 20.1738 17.3647 20.1124 17.5162 20.0019C17.6678 19.8914 17.7819 19.7372 17.8431 19.5599C17.9044 19.3827 17.9099 19.1909 17.8589 19.0105L16.1813 13.1402L20.3419 9.396C20.6143 9.15018 20.7143 8.76678 20.5969 8.41915Z" fill="#F3CD03"/>
<path d="M47.6125 8.41915C47.5548 8.24934 47.4487 8.10013 47.3072 7.98994C47.1658 7.87975 46.9951 7.81341 46.8163 7.7991L41.5872 7.38359L39.3244 2.37458C39.2523 2.21324 39.1351 2.07622 38.9869 1.98003C38.8387 1.88385 38.6658 1.83262 38.4891 1.83252C38.3124 1.83242 38.1394 1.88347 37.9911 1.97949C37.8428 2.07551 37.7254 2.21241 37.6532 2.37366L35.3904 7.38359L30.1612 7.7991C29.9855 7.81302 29.8176 7.87726 29.6774 7.98413C29.5373 8.09101 29.4309 8.236 29.371 8.40175C29.3111 8.5675 29.3002 8.747 29.3397 8.91877C29.3791 9.09054 29.4672 9.24731 29.5934 9.37032L33.4577 13.1374L32.0911 19.0554C32.0496 19.2345 32.0629 19.422 32.1292 19.5935C32.1956 19.765 32.312 19.9125 32.4633 20.0171C32.6146 20.1216 32.7938 20.1782 32.9776 20.1796C33.1615 20.181 33.3416 20.1271 33.4944 20.0249L38.4888 16.6954L43.4831 20.0249C43.6393 20.1286 43.8236 20.182 44.0111 20.1779C44.1986 20.1738 44.3803 20.1124 44.5319 20.0019C44.6834 19.8914 44.7975 19.7372 44.8587 19.5599C44.92 19.3827 44.9255 19.1909 44.8746 19.0105L43.1969 13.1402L47.3575 9.396C47.6299 9.15018 47.7299 8.76678 47.6125 8.41915Z" fill="#F3CD03"/>
<path d="M74.6242 8.41915C74.5666 8.24934 74.4604 8.10013 74.319 7.98994C74.1775 7.87975 74.0068 7.81341 73.8281 7.7991L68.5989 7.38359L66.3361 2.37458C66.264 2.21324 66.1468 2.07622 65.9986 1.98003C65.8504 1.88385 65.6775 1.83262 65.5008 1.83252C65.3241 1.83242 65.1511 1.88347 65.0028 1.97949C64.8545 2.07551 64.7371 2.21241 64.6649 2.37366L62.4021 7.38359L57.1729 7.7991C56.9972 7.81302 56.8293 7.87726 56.6891 7.98413C56.549 8.09101 56.4426 8.236 56.3827 8.40175C56.3228 8.5675 56.3119 8.747 56.3514 8.91877C56.3908 9.09054 56.4789 9.24731 56.6052 9.37032L60.4695 13.1374L59.1028 19.0554C59.0613 19.2345 59.0746 19.422 59.141 19.5935C59.2073 19.765 59.3237 19.9125 59.475 20.0171C59.6263 20.1216 59.8055 20.1782 59.9894 20.1796C60.1732 20.181 60.3533 20.1271 60.5062 20.0249L65.5005 16.6954L70.4948 20.0249C70.6511 20.1286 70.8353 20.182 71.0228 20.1779C71.2103 20.1738 71.3921 20.1124 71.5436 20.0019C71.6951 19.8914 71.8092 19.7372 71.8705 19.5599C71.9317 19.3827 71.9372 19.1909 71.8863 19.0105L70.2087 13.1402L74.3692 9.396C74.6416 9.15018 74.7416 8.76678 74.6242 8.41915Z" fill="#F3CD03"/>
<path d="M101.638 8.41915C101.58 8.24934 101.474 8.10013 101.333 7.98994C101.191 7.87975 101.02 7.81341 100.842 7.7991L95.6126 7.38359L93.3498 2.37458C93.2777 2.21324 93.1605 2.07622 93.0123 1.98003C92.864 1.88385 92.6912 1.83262 92.5145 1.83252C92.3378 1.83242 92.1648 1.88347 92.0165 1.97949C91.8682 2.07551 91.7508 2.21241 91.6786 2.37366L89.4157 7.38359L84.1866 7.7991C84.0109 7.81302 83.8429 7.87726 83.7028 7.98413C83.5627 8.09101 83.4563 8.236 83.3964 8.40175C83.3365 8.5675 83.3256 8.747 83.3651 8.91877C83.4045 9.09054 83.4926 9.24731 83.6188 9.37032L87.4831 13.1374L86.1165 19.0554C86.075 19.2345 86.0883 19.422 86.1546 19.5935C86.221 19.765 86.3374 19.9125 86.4887 20.0171C86.64 20.1216 86.8192 20.1782 87.003 20.1796C87.1869 20.181 87.367 20.1271 87.5198 20.0249L92.5142 16.6954L97.5085 20.0249C97.6647 20.1286 97.849 20.182 98.0365 20.1779C98.224 20.1738 98.4057 20.1124 98.5573 20.0019C98.7088 19.8914 98.8229 19.7372 98.8841 19.5599C98.9454 19.3827 98.9509 19.1909 98.8999 19.0105L97.2223 13.1402L101.383 9.396C101.655 9.15018 101.755 8.76678 101.638 8.41915Z" fill="#F3CD03"/>
<path d="M114.5 13.1374L113.133 19.0554C113.091 19.2346 113.103 19.4224 113.169 19.5943C113.236 19.7662 113.352 19.9141 113.503 20.0188C113.655 20.1235 113.834 20.1801 114.018 20.1812C114.203 20.1823 114.383 20.1278 114.535 20.0249L119.53 16.6954L124.524 20.0249C124.68 20.1287 124.865 20.1821 125.052 20.178C125.24 20.1739 125.421 20.1124 125.573 20.0019C125.724 19.8915 125.838 19.7372 125.9 19.56C125.961 19.3827 125.967 19.191 125.916 19.0105L124.238 13.1402L128.399 9.39603C128.532 9.27605 128.627 9.11963 128.672 8.94614C128.718 8.77264 128.711 8.58967 128.653 8.41986C128.596 8.25004 128.49 8.10083 128.348 7.99067C128.207 7.88051 128.036 7.81423 127.857 7.80004L122.628 7.38362L120.365 2.3746C120.293 2.21331 120.176 2.07635 120.028 1.98025C119.879 1.88415 119.706 1.83301 119.53 1.83301C119.353 1.83301 119.18 1.88415 119.032 1.98025C118.884 2.07635 118.766 2.21331 118.694 2.3746L116.431 7.38362L111.202 7.79913C111.027 7.81305 110.859 7.87729 110.718 7.98416C110.578 8.09104 110.472 8.23602 110.412 8.40178C110.352 8.56753 110.341 8.74703 110.381 8.9188C110.42 9.09057 110.508 9.24734 110.634 9.37035L114.5 13.1374ZM117.117 9.16947C117.28 9.15658 117.438 9.09987 117.572 9.0053C117.706 8.91073 117.812 8.78179 117.88 8.63198L119.53 4.98047L121.18 8.63198C121.247 8.78179 121.354 8.91073 121.488 9.0053C121.622 9.09987 121.779 9.15658 121.943 9.16947L125.586 9.4584L122.586 12.1587C122.326 12.3936 122.222 12.7549 122.317 13.0925L123.467 17.1146L120.04 14.8297C119.889 14.7288 119.712 14.6749 119.531 14.6749C119.35 14.6749 119.173 14.7288 119.023 14.8297L115.442 17.2173L116.405 13.0475C116.44 12.8942 116.435 12.7343 116.391 12.5833C116.347 12.4323 116.264 12.2953 116.152 12.1853L113.365 9.46849L117.117 9.16947Z" fill="#F3CD03"/>
</g>
<defs>
<clipPath id="clip0_2_347">
<rect width="130.068" height="22.0136" fill="white" transform="translate(0.466797)"/>
</clipPath>
</defs>
</svg>
